1<?xml version="1.0" encoding="UTF-8"?>
<svg width="128" height="128" viewBox="0 0 128 128" xmlns="http://www.w3.org/2000/svg">
    <rect width="128" height="128" rx="24" fill="#2196F3"/>
    <path d="M64 24C41.9 24 24 41.9 24 64C24 86.1 41.9 104 64 104C86.1 104 104 86.1 104 64C104 41.9 86.1 24 64 24ZM64 34C73.9 34 82 42.1 82 52C82 61.9 73.9 70 64 70C54.1 70 46 61.9 46 52C46 42.1 54.1 34 64 34ZM64 94C54.5 94 46.1 89.9 40 83.4C40.1 73.7 59.7 68.5 64 68.5C68.3 68.5 87.9 73.7 88 83.4C81.9 89.9 73.5 94 64 94Z" fill="white"/>
</svg> 